<svg enable-background="new 0 0 32 32" height="32" viewBox="0 0 32 32" width="32" xmlns="http://www.w3.org/2000/svg"><path d="m29 23.5c0 .28-.22.5-.5.5h-.5v.5c0 .28-.22.5-.5.5s-.5-.22-.5-.5v-.5h-.5c-.28 0-.5-.22-.5-.5s.22-.5.5-.5h.5v-.5c0-.28.22-.5.5-.5s.5.22.5.5v.5h.5c.28 0 .5.22.5.5z" fill="#31cfff"/><path d="m8 24.5c0 .28-.22.5-.5.5h-1.5v1.5c0 .28-.22.5-.5.5s-.5-.22-.5-.5v-1.5h-1.5c-.28 0-.5-.22-.5-.5s.22-.5.5-.5h1.5v-1.5c0-.28.22-.5.5-.5s.5.22.5.5v1.5h1.5c.28 0 .5.22.5.5z" fill="#5fffba"/><path d="m30 5.5c0 .28-.22.5-.5.5h-1.5v1.5c0 .28-.22.5-.5.5s-.5-.22-.5-.5v-1.5h-1.5c-.28 0-.5-.22-.5-.5s.22-.5.5-.5h1.5v-1.5c0-.28.22-.5.5-.5s.5.22.5.5v1.5h1.5c.28 0 .5.22.5.5z" fill="#5fffba"/><path d="m7 5.5c0 .28-.22.5-.5.5h-.5v.5c0 .28-.22.5-.5.5s-.5-.22-.5-.5v-.5h-.5c-.28 0-.5-.22-.5-.5s.22-.5.5-.5h.5v-.5c0-.28.22-.5.5-.5s.5.22.5.5v.5h.5c.28 0 .5.22.5.5z" fill="#31cfff"/><path d="m22.96 10.73c-.02-.24-.06-.48-.11-.71 0-.01 0-.01 0-.02-.42-2.13-1.76-3.94-3.58-5-.14-.09-.289-.16-.439-.23-.23-.12-.46-.22-.7-.31-.33-.12-.67-.23-1.02-.3-.2-.05-.4-.08-.601-.11h-.01c-3.67.49-6.5 3.63-6.5 7.43 0 1.37.36 2.65 1 3.75.65 1.13 1.91 3.01 3 4.6v-5.92c-.16.05-.32.09-.5.09-.83 0-1.5-.67-1.5-1.5s.67-1.5 1.5-1.5 1.5.67 1.5 1.5v8.5h1v-8.5c0-.83.67-1.5 1.5-1.5.68 0 1.25.45 1.43 1.07.62.18 1.07.75 1.07 1.43 0 .83-.67 1.5-1.5 1.5-.18 0-.34-.03-.5-.09v6.09h.19c.76-1.09 1.75-2.54 2.59-3.82.1-.14.189-.28.27-.42.38-.58.71-1.11.95-1.53.64-1.1 1-2.38 1-3.75 0-.26-.01-.5-.04-.75z" fill="#ffd561"/><path d="m22.03 6h-1.43c.891.81 1.57 1.84 1.971 3h1.069c-.33-1.11-.88-2.13-1.61-3z" fill="#2d2220"/><path d="m18 22v1h-3c0-.59 0-1 0-1z" fill="#bcbcbc"/><path d="m15 24h3v1h-3z" fill="#bcbcbc"/><path d="m15 26h3v.95c0 .71-.76 1.39-1.5 1.76-.74-.37-1.5-1.05-1.5-1.76z" fill="#bcbcbc"/><g fill="#2d2220"><path d="m28 22.5c0 .28-.22.5-.5.5h-.5v.5c0 .28-.22.5-.5.5s-.5-.22-.5-.5v-.5h-.5c-.28 0-.5-.22-.5-.5s.22-.5.5-.5h.5v-.5c0-.28.22-.5.5-.5s.5.22.5.5v.5h.5c.28 0 .5.22.5.5z"/><path d="m7 23.5c0 .28-.22.5-.5.5h-1.5v1.5c0 .28-.22.5-.5.5s-.5-.22-.5-.5v-1.5h-1.5c-.28 0-.5-.22-.5-.5s.22-.5.5-.5h1.5v-1.5c0-.28.22-.5.5-.5s.5.22.5.5v1.5h1.5c.28 0 .5.22.5.5z"/><path d="m29 4.5c0 .28-.22.5-.5.5h-1.5v1.5c0 .28-.22.5-.5.5s-.5-.22-.5-.5v-1.5h-1.5c-.28 0-.5-.22-.5-.5s.22-.5.5-.5h1.5v-1.5c0-.28.22-.5.5-.5s.5.22.5.5v1.5h1.5c.28 0 .5.22.5.5z"/><path d="m6 4.5c0 .28-.22.5-.5.5h-.5v.5c0 .28-.22.5-.5.5s-.5-.22-.5-.5v-.5h-.5c-.28 0-.5-.22-.5-.5s.22-.5.5-.5h.5v-.5c0-.28.22-.5.5-.5s.5.22.5.5v.5h.5c.28 0 .5.22.5.5z"/><path d="m22.87 15.68c.72-1.25 1.13-2.7 1.13-4.24 0-.49-.04-.97-.12-1.44h-1.03c.1.48.15.97.15 1.48 0 1.37-.36 2.65-1 3.75-.82 1.42-2.61 4.04-3.81 5.77h-1.19v-7.09c.16.05.32.09.5.09.83 0 1.5-.67 1.5-1.5s-.67-1.5-1.5-1.5-1.5.67-1.5 1.5v8.5h-1v-8.5c0-.83-.67-1.5-1.5-1.5s-1.5.67-1.5 1.5.67 1.5 1.5 1.5c.18 0 .34-.04.5-.09v7.09h-1.19c-1.2-1.73-2.99-4.35-3.81-5.77-.64-1.1-1-2.38-1-3.75 0-4.14 3.36-7.5 7.5-7.5 1.37 0 2.65.37 3.75 1.02h1.79c-1.49-1.29-3.43-2.06-5.54-2.06-4.69 0-8.5 3.81-8.5 8.5 0 1.54.41 2.99 1.13 4.24.84 1.44 2.54 4.02 3.87 5.99v1.33h-.5c-.28 0-.5.22-.5.5s.22.5.5.5h.5v1h-.5c-.28 0-.5.22-.5.5s.22.5.5.5h.5v.95c0 1.55 2.29 3.05 3.5 3.05s3.5-1.5 3.5-3.05v-.95h.5c.28 0 .5-.22.5-.5s-.22-.5-.5-.5h-.5v-1h.5c.28 0 .5-.22.5-.5s-.22-.5-.5-.5h-.5v-1.33c1.33-1.97 3.03-4.55 3.87-5.99zm-5.37-3.69c.27 0 .49.23.49.5 0 .28-.221.5-.49.5s-.49-.22-.49-.5c0-.27.22-.5.49-.5zm-4 1.01c-.27 0-.49-.23-.49-.5 0-.28.22-.5.49-.5s.49.22.49.5c0 .27-.22.5-.49.5zm4.5 13.95c0 .71-.76 1.39-1.5 1.76-.36.18-.72.29-1 .29-.83 0-2.5-1-2.5-2.05v-.95h5zm0-1.95h-5v-1h5zm0-2h-5c0-.59 0-1 0-1h5z"/></g></svg>