<svg fill="none" height="48" viewBox="0 0 48 48" width="48" xmlns="http://www.w3.org/2000/svg"><path d="m0 0h48v48h-48z" fill="#fff" fill-opacity=".01"/><g stroke-width="4"><path clip-rule="evenodd" d="m24 41.9999h5.9551c.083-2.7369.4842-4.2418 1.2035-4.5148 7.5099-2.8495 12.8414-10.0513 12.8414-18.4852h-40c0 8.2514 5.10319 15.3234 12.3568 18.2941.7583.3106 1.3247 1.8792 1.6992 4.7059z" fill="#2f88ff" fill-rule="evenodd" stroke="#000" stroke-linejoin="round"/><path d="m14.4434 26.0223c.3596 1.1879.8352 2.1686 1.4268 2.9422.5782.7563 1.2917 1.4577 2.1402 2.1042" stroke="#fff" stroke-linecap="round"/><path d="m32.2009 8.01747c-1.26-.70341-2.618-1.24975-4.0481-1.61285m-6.1021-.40474c-7.1234.8226-12.9065 6.09772-14.5507 13.00002m33-.0035c-.6704-2.8119-2.0278-5.3535-3.8828-7.434" stroke="#000" stroke-linecap="round"/></g></svg>