<svg viewBox="0 0 72 72" xmlns="http://www.w3.org/2000/svg"><path d="m36.8134 15.513c2.5154 2.2602 5.3358 4.1559 8.3786 5.6314 0 0 8.3721 6.0465 1.7674 20.5581 0 0-2.9767 13.1163-21.4883 13.4884-1.6203.0202-3.2391-.1044-4.8372-.3721v6.2339h-4.6511v-6.792c-.2629-.3453-.499-.7102-.7064-1.0915-2.9194-5.4055-.9057-12.1542 4.4985-15.076 1.8787-1.081 3.8853-1.9226 5.973-2.5051 1.6178-.4154 3.0597-1.3387 4.1139-2.6342 1.1918-1.3789 1.9035-3.1075 2.0282-4.9258 0 0-.093-4.8372 2.14-6.9767 0 0-4.44-5.3674-5.4705-8.4482h5.8237c.3675.3939 1.8427 2.3728 2.4302 2.9098z" fill="#ffa7c0"/><path d="m27.0619 46.6359c-1.0568.0405-1.9908.6989-2.3842 1.6806-.3227.8809-.0785 1.875 2.1889 2.3285 2.9425 1.0829 6.24.498 8.6306-1.5307.3101-.275.6582-.5038 1.0336-.6795 1.5761-.6397 2.989-1.6243 4.1347-2.8815.5267-.7065.3809-1.7061-.3255-2.2328-.0275-.0205-.0557-.0401-.0845-.0588-1.6121-1.0951-3.7681-.9262-5.19.4066 0 0-2.2455 2.6438-8.0036 2.9676z" fill="#e67a94"/><g fill="none" stroke="#000" stroke-linecap="round" stroke-linejoin="round" stroke-width="2"><path d="m15.9828 60.9583v-6.6977c-.2629-.3453-.499-.7102-.7064-1.0915-2.9194-5.4055-.9057-12.1542 4.4985-15.076 1.8787-1.081 3.8853-1.9226 5.973-2.5051 1.6178-.4154 3.0597-1.3387 4.1139-2.6342 1.1917-1.3789 1.9035-3.1075 2.0282-4.9257 0 0-.093-4.8372 2.14-6.9767 0 0-5.0232-4.93-5.2093-8.093"/><path d="m34.4013 12.9584s3.2558 4.4651 10.7907 8.186c0 0 8.3721 6.0465 1.7674 20.5581 0 0-2.9767 13.1163-21.4883 13.4884-1.6203.0202-3.2391-.1044-4.8372-.3721v6.1395"/><path d="m27.0619 46.6359c-1.0568.0405-1.9908.6989-2.3842 1.6806-.3227.8809-.0785 1.875 2.1889 2.3285 2.9425 1.0829 6.24.498 8.6306-1.5307.3101-.275.6582-.5038 1.0336-.6795 1.5761-.6397 2.989-1.6243 4.1347-2.8815.5267-.7065.3809-1.7061-.3255-2.2328-.0275-.0205-.0557-.0401-.0845-.0588-1.6121-1.0951-3.7681-.9262-5.19.4066 0 0-2.2455 2.6438-8.0036 2.9676z"/></g></svg>