<svg fill="none" height="190" viewBox="0 0 150 190" width="150" xmlns="http://www.w3.org/2000/svg"><path clip-rule="evenodd" d="m78.38 146c-22.72-3.71-26-23.43-26-23.43-3.39 1.15-2.33 12.2 1.47 19.38 5 9.54-11.34 16.79-16.09 7.66-5.63-10.9-10.48-45.61 12.35-45.61 9.87 0 15.19 9.79 19.5 9.79s7.44-4.71 7.44-13.46c0-12.32-13.88-16.45-13.88-38.07l5.43-.55c1.7 23.37 15.67 26.29 15.67 38.66.0192 2.167-.2157 4.328-.7 6.44 11.63 3.35 13.35-7.6 25.44-7.59-2.79-12.43-14.5-18.93-25.66-14.58-4.93-4.78-9.11-13.45-10-23.42l5.64-.57c.1221 6.1673 2.486 12.079 6.65 16.63 13.33-4.78 31.33 7.89 31.33 29.08-.05 29.36-16.57 43.21-38.59 39.64zm-32.79-4.28c-.4599-.019-.9189.056-1.3489.22-.4301.164-.8221.414-1.1524.735-.3302.321-.5917.705-.7684 1.13-.1768.425-.2652.882-.2597 1.342.0054.46.1045.915.2913 1.336.1867.42.4572.799.795 1.111.3377.313.7356.554 1.1693.708.4338.154.8944.218 1.3538.188 4.33-.03 4.38-6.8-.08-6.8zm35.76-18.51c-.4559-.019-.9109.055-1.3372.218s-.815.411-1.1423.729c-.3274.317-.5866.699-.7618 1.12s-.2627.874-.2573 1.33.1038.907.289 1.324.4534.792.7882 1.102c.3349.31.7293.548 1.1594.701.43.152.8866.216 1.342.186 4.32-.03 4.35-6.74-.08-6.74zm17.65-.72c6.84 0 6.33-9.34.42-9.34s-6.19 9.34-.42 9.34zm-6.85 12.76c4.31 0 4.34-6.71-.08-6.71-.456-.02-.9112.054-1.3378.216-.4267.162-.8159.409-1.1438.726-.3279.318-.5878.699-.7637 1.12s-.2642.874-.2594 1.33.1024.907.2871 1.324c.1846.418.4524.793.7869 1.103.3345.311.7287.55 1.1587.703.4299.153.8865.217 1.342.188z" fill="#000" fill-rule="evenodd"/></svg>